<svg id="visual" viewBox="0 0 900 300" width="900" height="300" xmlns="http://www.w3.org/2000/svg" xmlns:xlink="http://www.w3.org/1999/xlink" version="1.1"><rect x="0" y="0" width="900" height="300" fill="#202731"></rect><path d="M0 114L10 115.2C20 116.3 40 118.7 60 120.7C80 122.7 100 124.3 120 123.7C140 123 160 120 180 115C200 110 220 103 240 97.2C260 91.3 280 86.7 300 91.7C320 96.7 340 111.3 360 114.3C380 117.3 400 108.7 420 105.5C440 102.3 460 104.7 480 104.3C500 104 520 101 540 98.2C560 95.3 580 92.7 600 95.3C620 98 640 106 660 111.5C680 117 700 120 720 115.8C740 111.7 760 100.3 780 99.2C800 98 820 107 840 111C860 115 880 114 890 113.5L900 113L900 0L890 0C880 0 860 0 840 0C820 0 800 0 780 0C760 0 740 0 720 0C700 0 680 0 660 0C640 0 620 0 600 0C580 0 560 0 540 0C520 0 500 0 480 0C460 0 440 0 420 0C400 0 380 0 360 0C340 0 320 0 300 0C280 0 260 0 240 0C220 0 200 0 180 0C160 0 140 0 120 0C100 0 80 0 60 0C40 0 20 0 10 0L0 0Z" fill="#fa7268"></path><path d="M0 102L10 97.3C20 92.7 40 83.3 60 78.8C80 74.3 100 74.7 120 79.2C140 83.7 160 92.3 180 93.3C200 94.3 220 87.7 240 81.7C260 75.7 280 70.3 300 68.8C320 67.3 340 69.7 360 72.8C380 76 400 80 420 82.8C440 85.7 460 87.3 480 89.3C500 91.3 520 93.7 540 93.5C560 93.3 580 90.7 600 87.8C620 85 640 82 660 84C680 86 700 93 720 91.8C740 90.7 760 81.3 780 77.8C800 74.3 820 76.7 840 82C860 87.3 880 95.7 890 99.8L900 104L900 0L890 0C880 0 860 0 840 0C820 0 800 0 780 0C760 0 740 0 720 0C700 0 680 0 660 0C640 0 620 0 600 0C580 0 560 0 540 0C520 0 500 0 480 0C460 0 440 0 420 0C400 0 380 0 360 0C340 0 320 0 300 0C280 0 260 0 240 0C220 0 200 0 180 0C160 0 140 0 120 0C100 0 80 0 60 0C40 0 20 0 10 0L0 0Z" fill="#fc6165"></path><path d="M0 73L10 72.2C20 71.3 40 69.7 60 66.3C80 63 100 58 120 56.8C140 55.7 160 58.3 180 62C200 65.7 220 70.3 240 69.7C260 69 280 63 300 62.8C320 62.7 340 68.3 360 69.7C380 71 400 68 420 64C440 60 460 55 480 55.2C500 55.3 520 60.7 540 60.8C560 61 580 56 600 58C620 60 640 69 660 71C680 73 700 68 720 68.3C740 68.7 760 74.3 780 73C800 71.7 820 63.3 840 62.5C860 61.7 880 68.3 890 71.7L900 75L900 0L890 0C880 0 860 0 840 0C820 0 800 0 780 0C760 0 740 0 720 0C700 0 680 0 660 0C640 0 620 0 600 0C580 0 560 0 540 0C520 0 500 0 480 0C460 0 440 0 420 0C400 0 380 0 360 0C340 0 320 0 300 0C280 0 260 0 240 0C220 0 200 0 180 0C160 0 140 0 120 0C100 0 80 0 60 0C40 0 20 0 10 0L0 0Z" fill="#fe4e63"></path><path d="M0 57L10 52.5C20 48 40 39 60 34.5C80 30 100 30 120 32.7C140 35.3 160 40.7 180 42.2C200 43.7 220 41.3 240 39C260 36.7 280 34.3 300 36.8C320 39.3 340 46.7 360 49.7C380 52.7 400 51.3 420 50.5C440 49.7 460 49.3 480 47.5C500 45.7 520 42.3 540 40.2C560 38 580 37 600 39.8C620 42.7 640 49.3 660 52.3C680 55.3 700 54.7 720 54.5C740 54.3 760 54.7 780 53.7C800 52.7 820 50.3 840 48.3C860 46.3 880 44.7 890 43.8L900 43L900 0L890 0C880 0 860 0 840 0C820 0 800 0 780 0C760 0 740 0 720 0C700 0 680 0 660 0C640 0 620 0 600 0C580 0 560 0 540 0C520 0 500 0 480 0C460 0 440 0 420 0C400 0 380 0 360 0C340 0 320 0 300 0C280 0 260 0 240 0C220 0 200 0 180 0C160 0 140 0 120 0C100 0 80 0 60 0C40 0 20 0 10 0L0 0Z" fill="#ff3564"></path><path d="M0 36L10 33.3C20 30.7 40 25.3 60 21.3C80 17.3 100 14.7 120 15C140 15.3 160 18.7 180 22.2C200 25.7 220 29.3 240 28.3C260 27.3 280 21.7 300 19C320 16.3 340 16.7 360 18.2C380 19.7 400 22.3 420 23.7C440 25 460 25 480 24.7C500 24.3 520 23.7 540 22.2C560 20.7 580 18.3 600 19.2C620 20 640 24 660 25.2C680 26.3 700 24.7 720 25.3C740 26 760 29 780 27.2C800 25.3 820 18.7 840 17.7C860 16.7 880 21.3 890 23.7L900 26L900 0L890 0C880 0 860 0 840 0C820 0 800 0 780 0C760 0 740 0 720 0C700 0 680 0 660 0C640 0 620 0 600 0C580 0 560 0 540 0C520 0 500 0 480 0C460 0 440 0 420 0C400 0 380 0 360 0C340 0 320 0 300 0C280 0 260 0 240 0C220 0 200 0 180 0C160 0 140 0 120 0C100 0 80 0 60 0C40 0 20 0 10 0L0 0Z" fill="#ff0066"></path></svg>